<svg width="255" height="64" viewBox="0 0 255 64" fill="none" xmlns="http://www.w3.org/2000/svg">
<path d="M0 13H3V64H0V13Z" fill="url(#paint0_linear_23_8)"/>
<path d="M3 13H48V16H3V13Z" fill="url(#paint1_linear_23_8)"/>
<path d="M7 7H55.5L55 10H7V7Z" fill="url(#paint2_linear_23_8)"/>
<path d="M13 0H64V3H13V0Z" fill="url(#paint3_linear_23_8)"/>
<path d="M48 13L64 0V3L48 16V13Z" fill="url(#paint4_linear_23_8)"/>
<path d="M13 3H16V7H13V3Z" fill="url(#paint5_linear_23_8)"/>
<path d="M13 10H16V13H13V10Z" fill="url(#paint6_linear_23_8)"/>
<path d="M7 10H10V13H7V10Z" fill="url(#paint7_linear_23_8)"/>
<path d="M7 16H10V57H7V16Z" fill="url(#paint8_linear_23_8)"/>
<path d="M10 54H58V57H10V54Z" fill="url(#paint9_linear_23_8)"/>
<path d="M3 61H52V64H3V61Z" fill="url(#paint10_linear_23_8)"/>
<path d="M49 57H52V61H49V57Z" fill="url(#paint11_linear_23_8)"/>
<path d="M49 39H52V54H49V39Z" fill="url(#paint12_linear_23_8)"/>
<path d="M55 32H58V54H55V32Z" fill="url(#paint13_linear_23_8)"/>
<path d="M61 26H64V51H61V26Z" fill="url(#paint14_linear_23_8)"/>
<path d="M13 48H61V51H13V48Z" fill="url(#paint15_linear_23_8)"/>
<path d="M24 39L39 25V28L32 35.5L25 42L24 39Z" fill="url(#paint16_linear_23_8)"/>
<path d="M39 25L64.0001 25V28L39 28V25Z" fill="url(#paint17_linear_23_8)"/>
<path d="M32 32H55V35H32V32Z" fill="url(#paint18_linear_23_8)"/>
<path d="M24 39H49V42H24V39Z" fill="url(#paint19_linear_23_8)"/>
<path d="M13 16H16V48H13V16Z" fill="url(#paint20_linear_23_8)"/>
<path d="M21 42L24 39V42H21Z" fill="url(#paint21_linear_23_8)"/>
<path d="M64 0H67.5L64 3V0Z" fill="url(#paint22_linear_23_8)"/>
<path d="M96.64 28.029C95.9633 26.521 94.9387 25.303 93.566 24.375C92.2127 23.447 90.5983 22.983 88.723 22.983C87.0797 22.983 85.591 23.36 84.257 24.114C82.9423 24.868 81.8983 25.9507 81.125 27.362C80.3517 28.754 79.965 30.4167 79.965 32.35C79.965 34.2833 80.3517 35.9557 81.125 37.367C81.8983 38.759 82.9423 39.832 84.257 40.586C85.591 41.3207 87.0797 41.688 88.723 41.688C89.999 41.688 91.1977 41.4463 92.319 40.963C93.4403 40.4797 94.3973 39.7837 95.19 38.875C96.002 37.9663 96.6013 36.874 96.988 35.598V32.901H88.781V31.973H98.09V35.656C97.7033 37.0673 97.0557 38.3047 96.147 39.368C95.2577 40.412 94.175 41.2337 92.899 41.833C91.6423 42.413 90.2503 42.703 88.723 42.703C87.2923 42.703 85.9777 42.4517 84.779 41.949C83.5803 41.4463 82.5363 40.7407 81.647 39.832C80.7577 38.904 80.0713 37.8117 79.588 36.555C79.1047 35.279 78.863 33.8773 78.863 32.35C78.863 30.8227 79.1047 29.4307 79.588 28.174C80.0713 26.898 80.7577 25.8057 81.647 24.897C82.5363 23.969 83.5803 23.2537 84.779 22.751C85.9777 22.2483 87.2923 21.997 88.723 21.997C90.1343 21.997 91.4103 22.229 92.551 22.693C93.6917 23.157 94.6873 23.8143 95.538 24.665C96.3887 25.5157 97.0653 26.521 97.568 27.681L96.64 28.029ZM102.11 21.794H103.183V42.5H102.11V21.794ZM117.629 42.5L117.6 38.875C117.213 40.1123 116.546 41.0597 115.599 41.717C114.671 42.3743 113.482 42.703 112.032 42.703C110.988 42.703 110.098 42.5483 109.364 42.239C108.629 41.9297 108.059 41.485 107.653 40.905C107.266 40.3057 107.073 39.5903 107.073 38.759C107.073 37.541 107.527 36.5647 108.436 35.83C109.364 35.0953 110.765 34.6313 112.641 34.438L117.6 33.887V32.582C117.6 31.364 117.223 30.4263 116.469 29.769C115.734 29.1117 114.7 28.783 113.366 28.783C112.07 28.783 111.007 29.0827 110.176 29.682C109.364 30.262 108.822 31.103 108.552 32.205L107.595 31.857C107.943 30.5423 108.6 29.537 109.567 28.841C110.553 28.145 111.809 27.797 113.337 27.797C115.019 27.797 116.324 28.2127 117.252 29.044C118.18 29.856 118.644 30.9967 118.644 32.466V42.5H117.629ZM117.6 34.844L112.612 35.395C111.065 35.5497 109.944 35.9073 109.248 36.468C108.552 37.0093 108.204 37.7537 108.204 38.701C108.204 39.6677 108.532 40.4217 109.19 40.963C109.866 41.5043 110.814 41.775 112.032 41.775C113.211 41.775 114.216 41.5333 115.048 41.05C115.879 40.5473 116.507 39.861 116.933 38.991C117.377 38.1017 117.6 37.0577 117.6 35.859V34.844ZM123.266 38.527C123.401 39.223 123.633 39.8127 123.962 40.296C124.31 40.76 124.784 41.1177 125.383 41.369C125.982 41.601 126.717 41.717 127.587 41.717C128.979 41.717 130.013 41.4367 130.69 40.876C131.386 40.3153 131.734 39.6 131.734 38.73C131.734 38.0147 131.531 37.4637 131.125 37.077C130.738 36.671 130.216 36.3617 129.559 36.149C128.921 35.9363 128.254 35.7527 127.558 35.598C127.113 35.5013 126.601 35.3853 126.021 35.25C125.441 35.0953 124.88 34.8827 124.339 34.612C123.798 34.3413 123.343 33.9837 122.976 33.539C122.628 33.075 122.454 32.466 122.454 31.712C122.454 30.9387 122.667 30.2523 123.092 29.653C123.537 29.0537 124.136 28.5993 124.89 28.29C125.663 27.9613 126.543 27.797 127.529 27.797C128.708 27.797 129.752 28.058 130.661 28.58C131.57 29.102 132.188 29.9527 132.517 31.132L131.589 31.451C131.376 30.697 131.038 30.1363 130.574 29.769C130.129 29.3823 129.636 29.1213 129.095 28.986C128.554 28.8507 128.032 28.783 127.529 28.783C126.35 28.783 125.393 29.044 124.658 29.566C123.943 30.0687 123.585 30.7647 123.585 31.654C123.585 32.1953 123.711 32.64 123.962 32.988C124.233 33.3167 124.571 33.5873 124.977 33.8C125.383 33.9933 125.837 34.148 126.34 34.264C126.862 34.38 127.374 34.496 127.877 34.612C128.438 34.728 129.008 34.8827 129.588 35.076C130.168 35.25 130.7 35.4917 131.183 35.801C131.686 36.091 132.092 36.4777 132.401 36.961C132.71 37.425 132.865 38.0243 132.865 38.759C132.865 39.571 132.643 40.2767 132.198 40.876C131.773 41.4753 131.164 41.9297 130.371 42.239C129.578 42.5483 128.641 42.703 127.558 42.703C126.127 42.703 124.958 42.3937 124.049 41.775C123.14 41.1563 122.551 40.18 122.28 38.846L123.266 38.527ZM136.747 38.527C136.882 39.223 137.114 39.8127 137.443 40.296C137.791 40.76 138.264 41.1177 138.864 41.369C139.463 41.601 140.198 41.717 141.068 41.717C142.46 41.717 143.494 41.4367 144.171 40.876C144.867 40.3153 145.215 39.6 145.215 38.73C145.215 38.0147 145.012 37.4637 144.606 37.077C144.219 36.671 143.697 36.3617 143.04 36.149C142.402 35.9363 141.735 35.7527 141.039 35.598C140.594 35.5013 140.082 35.3853 139.502 35.25C138.922 35.0953 138.361 34.8827 137.82 34.612C137.278 34.3413 136.824 33.9837 136.457 33.539C136.109 33.075 135.935 32.466 135.935 31.712C135.935 30.9387 136.147 30.2523 136.573 29.653C137.017 29.0537 137.617 28.5993 138.371 28.29C139.144 27.9613 140.024 27.797 141.01 27.797C142.189 27.797 143.233 28.058 144.142 28.58C145.05 29.102 145.669 29.9527 145.998 31.132L145.07 31.451C144.857 30.697 144.519 30.1363 144.055 29.769C143.61 29.3823 143.117 29.1213 142.576 28.986C142.034 28.8507 141.512 28.783 141.01 28.783C139.83 28.783 138.873 29.044 138.139 29.566C137.423 30.0687 137.066 30.7647 137.066 31.654C137.066 32.1953 137.191 32.64 137.443 32.988C137.713 33.3167 138.052 33.5873 138.458 33.8C138.864 33.9933 139.318 34.148 139.821 34.264C140.343 34.38 140.855 34.496 141.358 34.612C141.918 34.728 142.489 34.8827 143.069 35.076C143.649 35.25 144.18 35.4917 144.664 35.801C145.166 36.091 145.572 36.4777 145.882 36.961C146.191 37.425 146.346 38.0243 146.346 38.759C146.346 39.571 146.123 40.2767 145.679 40.876C145.253 41.4753 144.644 41.9297 143.852 42.239C143.059 42.5483 142.121 42.703 141.039 42.703C139.608 42.703 138.438 42.3937 137.53 41.775C136.621 41.1563 136.031 40.18 135.761 38.846L136.747 38.527Z" fill="url(#paint23_linear_23_8)"/>
<path d="M162.708 31.48C163.481 31.48 164.119 31.364 164.622 31.132C165.125 30.8807 165.492 30.5327 165.724 30.088C165.975 29.624 166.101 29.0827 166.101 28.464C166.101 27.5167 165.821 26.782 165.26 26.26C164.719 25.738 163.868 25.477 162.708 25.477H158.387V31.48H162.708ZM170.103 28.464C170.103 29.218 169.968 29.972 169.697 30.726C169.426 31.4607 169.001 32.1373 168.421 32.756C167.841 33.3553 167.087 33.8387 166.159 34.206C165.25 34.5733 164.139 34.757 162.824 34.757H158.387V42.5H154.472V22.2H162.824C164.467 22.2 165.821 22.49 166.884 23.07C167.967 23.6307 168.769 24.3943 169.291 25.361C169.832 26.3083 170.103 27.3427 170.103 28.464ZM172.876 28H176.24L176.501 29.856C176.907 29.3533 177.361 28.9473 177.864 28.638C178.386 28.3093 178.956 28.087 179.575 27.971C180.194 27.8357 180.841 27.8453 181.518 28V31.48C180.996 31.306 180.445 31.2577 179.865 31.335C179.304 31.4123 178.773 31.6153 178.27 31.944C177.787 32.2727 177.381 32.7463 177.052 33.365C176.743 33.9643 176.588 34.728 176.588 35.656V42.5H172.876V28ZM190.476 42.703C189.064 42.703 187.808 42.4033 186.706 41.804C185.604 41.1853 184.734 40.325 184.096 39.223C183.477 38.1017 183.168 36.787 183.168 35.279C183.168 33.7517 183.487 32.4273 184.125 31.306C184.782 30.1847 185.671 29.3243 186.793 28.725C187.914 28.1063 189.171 27.797 190.563 27.797C191.955 27.797 193.211 28.1063 194.333 28.725C195.454 29.3243 196.343 30.1847 197.001 31.306C197.658 32.408 197.987 33.713 197.987 35.221C197.987 36.7483 197.648 38.0727 196.972 39.194C196.314 40.3153 195.415 41.1853 194.275 41.804C193.153 42.4033 191.887 42.703 190.476 42.703ZM190.447 39.368C191.046 39.368 191.616 39.223 192.158 38.933C192.699 38.6237 193.144 38.1693 193.492 37.57C193.84 36.9513 194.014 36.1683 194.014 35.221C194.014 34.3123 193.849 33.5583 193.521 32.959C193.192 32.3403 192.757 31.886 192.216 31.596C191.694 31.2867 191.123 31.132 190.505 31.132C189.905 31.132 189.345 31.2867 188.823 31.596C188.32 31.886 187.914 32.3403 187.605 32.959C187.315 33.5583 187.17 34.3317 187.17 35.279C187.17 36.1877 187.315 36.9513 187.605 37.57C187.895 38.1693 188.291 38.6237 188.794 38.933C189.296 39.223 189.847 39.368 190.447 39.368ZM201.872 28V23.94H205.642V28H208.832V31.277H205.642V37.164C205.642 37.918 205.797 38.4497 206.106 38.759C206.435 39.0683 206.841 39.2327 207.324 39.252C207.827 39.2713 208.33 39.2423 208.832 39.165V42.355C207.943 42.5483 207.073 42.6063 206.222 42.529C205.391 42.4517 204.647 42.2293 203.989 41.862C203.332 41.4753 202.81 40.8953 202.423 40.122C202.056 39.3487 201.872 38.3627 201.872 37.164V31.277H199.813V28H201.872ZM218.06 42.703C216.61 42.703 215.334 42.384 214.232 41.746C213.13 41.108 212.269 40.2187 211.651 39.078C211.051 37.9373 210.752 36.6227 210.752 35.134C210.752 33.7033 211.051 32.437 211.651 31.335C212.25 30.233 213.081 29.3727 214.145 28.754C215.227 28.116 216.455 27.797 217.828 27.797C219.22 27.797 220.447 28.0967 221.511 28.696C222.574 29.2953 223.396 30.1363 223.976 31.219C224.575 32.2823 224.875 33.5293 224.875 34.96C224.875 35.1727 224.855 35.4143 224.817 35.685C224.797 35.9363 224.768 36.207 224.73 36.497H214.754C214.831 37.1157 215.024 37.6473 215.334 38.092C215.662 38.5173 216.059 38.8557 216.523 39.107C217.006 39.339 217.547 39.455 218.147 39.455C218.862 39.455 219.5 39.31 220.061 39.02C220.641 38.7107 221.056 38.3143 221.308 37.831L224.614 38.817C224.034 40.0543 223.164 41.0113 222.004 41.688C220.863 42.3647 219.548 42.703 218.06 42.703ZM220.815 33.8C220.795 33.2587 220.65 32.7753 220.38 32.35C220.109 31.9053 219.751 31.567 219.307 31.335C218.862 31.0837 218.369 30.958 217.828 30.958C217.344 30.958 216.89 31.0837 216.465 31.335C216.039 31.5863 215.672 31.9247 215.363 32.35C215.073 32.756 214.879 33.2393 214.783 33.8H220.815ZM234.084 42.703C232.673 42.703 231.436 42.3937 230.372 41.775C229.309 41.1563 228.478 40.296 227.878 39.194C227.279 38.0727 226.979 36.7773 226.979 35.308C226.979 33.8193 227.279 32.5143 227.878 31.393C228.478 30.2717 229.319 29.392 230.401 28.754C231.484 28.116 232.731 27.797 234.142 27.797C235.67 27.797 237.023 28.174 238.202 28.928C239.401 29.682 240.242 30.697 240.725 31.973L237.274 32.959C237.042 32.3983 236.656 31.9537 236.114 31.625C235.592 31.2963 234.993 31.132 234.316 31.132C233.64 31.132 233.04 31.306 232.518 31.654C232.016 32.002 231.619 32.4853 231.329 33.104C231.059 33.7227 230.923 34.4477 230.923 35.279C230.923 36.5357 231.233 37.5313 231.851 38.266C232.47 39.0007 233.301 39.368 234.345 39.368C235.003 39.368 235.602 39.2133 236.143 38.904C236.685 38.5753 237.091 38.1307 237.361 37.57L240.783 38.556C240.261 39.8127 239.391 40.818 238.173 41.572C236.975 42.326 235.612 42.703 234.084 42.703ZM244.664 28V23.94H248.434V28H251.624V31.277H248.434V37.164C248.434 37.918 248.589 38.4497 248.898 38.759C249.227 39.0683 249.633 39.2327 250.116 39.252C250.619 39.2713 251.122 39.2423 251.624 39.165V42.355C250.735 42.5483 249.865 42.6063 249.014 42.529C248.183 42.4517 247.439 42.2293 246.781 41.862C246.124 41.4753 245.602 40.8953 245.215 40.122C244.848 39.3487 244.664 38.3627 244.664 37.164V31.277H242.605V28H244.664Z" fill="url(#paint24_linear_23_8)"/>
<defs>
<linearGradient id="paint0_linear_23_8" x1="55" y1="19" x2="-9.5" y2="64" gradientUnits="userSpaceOnUse">
<stop stop-color="#32A1FD"/>
<stop offset="1" stop-color="#3406CB"/>
</linearGradient>
<linearGradient id="paint1_linear_23_8" x1="55" y1="19" x2="-9.5" y2="64" gradientUnits="userSpaceOnUse">
<stop stop-color="#32A1FD"/>
<stop offset="1" stop-color="#3406CB"/>
</linearGradient>
<linearGradient id="paint2_linear_23_8" x1="55" y1="19" x2="-9.5" y2="64" gradientUnits="userSpaceOnUse">
<stop stop-color="#32A1FD"/>
<stop offset="1" stop-color="#3406CB"/>
</linearGradient>
<linearGradient id="paint3_linear_23_8" x1="55" y1="19" x2="-9.5" y2="64" gradientUnits="userSpaceOnUse">
<stop stop-color="#32A1FD"/>
<stop offset="1" stop-color="#3406CB"/>
</linearGradient>
<linearGradient id="paint4_linear_23_8" x1="55" y1="19" x2="-9.5" y2="64" gradientUnits="userSpaceOnUse">
<stop stop-color="#32A1FD"/>
<stop offset="1" stop-color="#3406CB"/>
</linearGradient>
<linearGradient id="paint5_linear_23_8" x1="55" y1="19" x2="-9.5" y2="64" gradientUnits="userSpaceOnUse">
<stop stop-color="#32A1FD"/>
<stop offset="1" stop-color="#3406CB"/>
</linearGradient>
<linearGradient id="paint6_linear_23_8" x1="55" y1="19" x2="-9.5" y2="64" gradientUnits="userSpaceOnUse">
<stop stop-color="#32A1FD"/>
<stop offset="1" stop-color="#3406CB"/>
</linearGradient>
<linearGradient id="paint7_linear_23_8" x1="55" y1="19" x2="-9.5" y2="64" gradientUnits="userSpaceOnUse">
<stop stop-color="#32A1FD"/>
<stop offset="1" stop-color="#3406CB"/>
</linearGradient>
<linearGradient id="paint8_linear_23_8" x1="55" y1="19" x2="-9.5" y2="64" gradientUnits="userSpaceOnUse">
<stop stop-color="#32A1FD"/>
<stop offset="1" stop-color="#3406CB"/>
</linearGradient>
<linearGradient id="paint9_linear_23_8" x1="55" y1="19" x2="-9.5" y2="64" gradientUnits="userSpaceOnUse">
<stop stop-color="#32A1FD"/>
<stop offset="1" stop-color="#3406CB"/>
</linearGradient>
<linearGradient id="paint10_linear_23_8" x1="55" y1="19" x2="-9.5" y2="64" gradientUnits="userSpaceOnUse">
<stop stop-color="#32A1FD"/>
<stop offset="1" stop-color="#3406CB"/>
</linearGradient>
<linearGradient id="paint11_linear_23_8" x1="55" y1="19" x2="-9.5" y2="64" gradientUnits="userSpaceOnUse">
<stop stop-color="#32A1FD"/>
<stop offset="1" stop-color="#3406CB"/>
</linearGradient>
<linearGradient id="paint12_linear_23_8" x1="55" y1="19" x2="-9.5" y2="64" gradientUnits="userSpaceOnUse">
<stop stop-color="#32A1FD"/>
<stop offset="1" stop-color="#3406CB"/>
</linearGradient>
<linearGradient id="paint13_linear_23_8" x1="55" y1="19" x2="-9.5" y2="64" gradientUnits="userSpaceOnUse">
<stop stop-color="#32A1FD"/>
<stop offset="1" stop-color="#3406CB"/>
</linearGradient>
<linearGradient id="paint14_linear_23_8" x1="55" y1="19" x2="-9.5" y2="64" gradientUnits="userSpaceOnUse">
<stop stop-color="#32A1FD"/>
<stop offset="1" stop-color="#3406CB"/>
</linearGradient>
<linearGradient id="paint15_linear_23_8" x1="55" y1="19" x2="-9.5" y2="64" gradientUnits="userSpaceOnUse">
<stop stop-color="#32A1FD"/>
<stop offset="1" stop-color="#3406CB"/>
</linearGradient>
<linearGradient id="paint16_linear_23_8" x1="55" y1="19" x2="-9.5" y2="64" gradientUnits="userSpaceOnUse">
<stop stop-color="#32A1FD"/>
<stop offset="1" stop-color="#3406CB"/>
</linearGradient>
<linearGradient id="paint17_linear_23_8" x1="55" y1="19" x2="-9.5" y2="64" gradientUnits="userSpaceOnUse">
<stop stop-color="#32A1FD"/>
<stop offset="1" stop-color="#3406CB"/>
</linearGradient>
<linearGradient id="paint18_linear_23_8" x1="55" y1="19" x2="-9.5" y2="64" gradientUnits="userSpaceOnUse">
<stop stop-color="#32A1FD"/>
<stop offset="1" stop-color="#3406CB"/>
</linearGradient>
<linearGradient id="paint19_linear_23_8" x1="55" y1="19" x2="-9.5" y2="64" gradientUnits="userSpaceOnUse">
<stop stop-color="#32A1FD"/>
<stop offset="1" stop-color="#3406CB"/>
</linearGradient>
<linearGradient id="paint20_linear_23_8" x1="55" y1="19" x2="-9.5" y2="64" gradientUnits="userSpaceOnUse">
<stop stop-color="#32A1FD"/>
<stop offset="1" stop-color="#3406CB"/>
</linearGradient>
<linearGradient id="paint21_linear_23_8" x1="55" y1="19" x2="-9.5" y2="64" gradientUnits="userSpaceOnUse">
<stop stop-color="#32A1FD"/>
<stop offset="1" stop-color="#3406CB"/>
</linearGradient>
<linearGradient id="paint22_linear_23_8" x1="55" y1="19" x2="-9.5" y2="64" gradientUnits="userSpaceOnUse">
<stop stop-color="#32A1FD"/>
<stop offset="1" stop-color="#3406CB"/>
</linearGradient>
<linearGradient id="paint23_linear_23_8" x1="118.5" y1="83" x2="117.5" y2="-23" gradientUnits="userSpaceOnUse">
<stop stop-color="#7E7E7E"/>
<stop offset="1"/>
</linearGradient>
<linearGradient id="paint24_linear_23_8" x1="233.981" y1="24.8906" x2="202.909" y2="83.618" gradientUnits="userSpaceOnUse">
<stop stop-color="#32A1FD"/>
<stop offset="1" stop-color="#3406CB"/>
</linearGradient>
</defs>
</svg>
